{"glyphs":{"0":{"ha":694,"x_min":0,"x_max":0,"o":"m 69 911 b 269 1111 69 1042 139 1111 l 425 1111 b 625 911 556 1111 625 1042 l 625 200 b 425 0 625 69 556 0 l 269 0 b 69 200 139 0 69 69 m 390 179 b 446 235 426 179 446 197 l 446 876 b 390 932 446 913 426 932 l 310 932 b 254 876 274 932 254 913 l 254 235 b 310 179 254 197 274 179 "},"1":{"ha":457,"x_min":0,"x_max":0,"o":"m 351 1111 b 374 1089 365 1111 374 1103 l 374 22 b 351 0 374 8 365 0 l 207 0 b 185 22 192 0 185 8 l 185 900 l 99 889 b 69 914 81 886 69 896 l 69 1047 b 96 1076 69 1065 78 1075 "},"2":{"ha":694,"x_min":0,"x_max":0,"o":"m 278 365 b 258 332 264 357 258 347 l 258 211 b 286 183 258 193 268 183 l 436 183 l 436 240 b 464 268 436 258 446 268 l 597 268 b 625 240 615 268 625 258 l 625 28 b 597 0 625 10 615 0 l 97 0 b 69 28 79 0 69 10 l 69 438 b 106 489 69 464 79 475 l 436 667 l 436 872 b 381 928 436 908 415 928 l 314 928 b 258 872 276 928 258 908 l 258 764 b 236 742 258 750 250 742 l 92 742 b 69 764 76 742 69 750 l 69 911 b 269 1111 69 1042 139 1111 l 425 1111 b 625 911 554 1111 625 1042 l 625 583 b 588 532 625 557 614 546 "},"3":{"ha":696,"x_min":0,"x_max":0,"o":"m 626 656 b 539 557 626 604 589 565 l 539 554 b 626 456 589 546 626 507 l 626 200 b 425 0 626 69 556 0 l 264 0 b 69 194 138 0 69 68 l 69 240 b 97 268 69 258 79 268 l 231 268 b 258 240 249 268 258 258 l 258 183 l 414 183 b 442 211 432 183 442 193 l 442 408 b 386 464 442 444 424 464 l 222 464 b 194 492 204 464 194 474 l 194 619 b 222 647 194 638 204 647 l 386 647 b 442 701 422 647 442 667 l 442 900 b 414 928 442 918 432 928 l 258 928 l 258 871 b 231 843 258 853 249 843 l 97 843 b 69 871 79 843 69 853 l 69 928 b 264 1111 69 1047 138 1111 l 425 1111 b 626 911 556 1111 626 1042 "},"4":{"ha":826,"x_min":0,"x_max":0,"o":"m 729 503 b 757 475 747 503 757 493 l 757 356 b 729 328 757 338 747 328 l 672 328 l 672 28 b 644 0 672 10 663 0 l 524 0 b 496 28 506 0 496 10 l 496 331 l 97 331 b 69 358 79 331 69 340 l 69 482 b 79 515 69 494 72 504 l 436 1093 b 469 1111 443 1106 454 1111 l 615 1111 b 633 1078 638 1111 646 1097 l 285 500 l 496 500 l 496 667 b 524 694 496 685 506 694 l 644 694 b 672 667 663 694 672 685 l 672 503 "},"5":{"ha":694,"x_min":0,"x_max":0,"o":"m 583 1111 b 611 1083 601 1111 611 1101 l 611 956 b 583 928 611 938 601 928 l 271 928 l 271 710 l 601 606 b 625 575 618 600 625 590 l 625 194 b 431 0 625 68 557 0 l 264 0 b 69 194 138 0 69 68 l 69 239 b 97 267 69 257 79 267 l 231 267 b 258 239 249 267 258 257 l 258 183 l 410 183 b 438 211 428 183 438 193 l 438 465 l 107 569 b 83 600 90 575 83 585 l 83 1083 b 111 1111 83 1101 93 1111 "},"6":{"ha":694,"x_min":0,"x_max":0,"o":"m 431 682 b 625 488 557 682 625 614 l 625 194 b 431 0 625 68 557 0 l 264 0 b 69 194 138 0 69 68 l 69 551 b 83 621 69 578 74 596 l 281 1090 b 313 1111 286 1104 296 1111 l 457 1111 b 478 1079 478 1111 486 1099 l 310 682 m 386 183 b 442 239 422 183 442 203 l 442 443 b 386 499 442 479 422 499 l 308 499 b 253 443 272 499 253 479 l 253 239 b 308 183 253 203 272 183 "},"7":{"ha":726,"x_min":0,"x_max":0,"o":"m 661 1111 b 682 1078 683 1111 689 1097 l 276 24 b 244 1 271 8 261 1 l 100 0 b 78 32 79 0 71 13 l 421 926 l 92 926 b 69 949 78 926 69 935 l 69 1088 b 92 1111 69 1103 78 1110 "},"8":{"ha":696,"x_min":0,"x_max":0,"o":"m 626 656 b 539 557 626 604 589 565 l 539 554 b 626 456 589 546 626 507 l 626 200 b 425 0 626 69 556 0 l 271 0 b 69 200 140 0 69 69 l 69 456 b 157 554 69 507 107 546 l 157 557 b 69 656 107 565 69 604 l 69 911 b 271 1111 69 1042 140 1111 l 425 1111 b 626 911 556 1111 626 1042 m 442 872 b 386 928 442 908 424 928 l 310 928 b 254 872 272 928 254 908 l 254 701 b 310 647 254 667 274 647 l 386 647 b 442 701 422 647 442 667 m 442 408 b 386 464 442 444 424 464 l 310 464 b 254 408 272 464 254 444 l 254 239 b 310 183 254 201 274 183 l 386 183 b 442 239 422 183 442 201 "},"9":{"ha":694,"x_min":0,"x_max":0,"o":"m 264 429 b 69 624 138 429 69 497 l 69 917 b 264 1111 69 1043 138 1111 l 431 1111 b 625 917 557 1111 625 1043 l 625 560 b 611 490 625 533 621 515 l 414 21 b 382 0 408 7 399 0 l 238 0 b 217 32 217 0 208 13 l 385 429 m 308 928 b 253 872 272 928 253 908 l 253 668 b 308 613 253 632 272 613 l 386 613 b 442 668 422 613 442 632 l 442 872 b 386 928 442 908 422 928 "},"A":{"ha":814,"x_min":0,"x_max":0,"o":"m 592 0 b 569 19 579 0 572 7 l 531 222 l 283 222 l 246 19 b 224 0 243 7 236 0 l 75 0 b 57 24 60 0 53 8 l 288 1092 b 311 1111 290 1106 299 1111 l 504 1111 b 528 1092 517 1111 525 1106 l 758 24 b 739 0 761 8 756 0 m 407 868 l 318 383 l 496 383 "},"B":{"ha":696,"x_min":0,"x_max":0,"o":"m 626 656 b 539 557 626 604 589 565 l 539 554 b 626 456 589 546 626 507 l 626 200 b 425 0 626 69 556 0 l 92 0 b 69 22 78 0 69 8 l 69 1089 b 92 1111 69 1104 78 1111 l 425 1111 b 626 911 556 1111 626 1042 m 442 872 b 386 928 442 908 424 928 l 260 928 l 260 647 l 386 647 b 442 701 422 647 442 667 m 442 408 b 386 464 442 444 424 464 l 260 464 l 260 183 l 386 183 b 442 239 422 183 442 201 "},"C":{"ha":696,"x_min":0,"x_max":0,"o":"m 626 761 b 604 739 626 747 618 739 l 465 739 b 443 761 450 739 443 747 l 443 872 b 388 928 443 908 424 928 l 315 928 b 260 872 278 928 260 908 l 260 239 b 315 183 260 201 279 183 l 388 183 b 443 239 424 183 443 201 l 443 350 b 465 372 443 364 450 372 l 604 372 b 626 350 618 372 626 364 l 626 200 b 426 0 626 69 556 0 l 271 0 b 69 200 140 0 69 69 l 69 911 b 271 1111 69 1042 140 1111 l 426 1111 b 626 911 556 1111 626 1042 "},"D":{"ha":694,"x_min":0,"x_max":0,"o":"m 69 1089 b 92 1111 69 1103 76 1111 l 425 1111 b 625 910 556 1111 625 1040 l 625 200 b 425 0 625 69 556 0 l 92 0 b 69 22 76 0 69 7 m 386 183 b 442 239 422 183 442 201 l 442 871 b 386 928 442 908 422 928 l 258 928 l 258 183 "},"E":{"ha":693,"x_min":0,"x_max":0,"o":"m 624 950 b 601 926 624 936 618 926 l 254 926 l 254 649 l 519 649 b 542 625 533 649 542 640 l 542 488 b 519 464 542 472 533 464 l 254 464 l 254 183 l 601 183 b 624 161 618 183 624 176 l 624 22 b 601 0 624 8 618 0 l 90 0 b 69 22 78 0 69 8 l 69 1089 b 90 1111 69 1103 78 1111 l 601 1111 b 624 1089 618 1111 624 1103 "},"F":{"ha":694,"x_min":0,"x_max":0,"o":"m 625 950 b 603 928 625 936 617 928 l 258 928 l 258 649 l 519 649 b 542 626 533 649 542 640 l 542 488 b 519 465 542 472 533 465 l 258 465 l 258 22 b 236 0 258 8 250 0 l 92 0 b 69 22 76 0 69 8 l 69 1089 b 92 1111 69 1103 76 1111 l 603 1111 b 625 1089 617 1111 625 1103 "},"G":{"ha":722,"x_min":0,"x_max":0,"o":"m 69 911 b 269 1111 69 1042 139 1111 l 453 1111 b 653 911 582 1111 653 1042 l 653 767 b 631 744 653 753 644 744 l 492 744 b 469 767 476 744 469 753 l 469 872 b 414 928 469 908 450 928 l 314 928 b 258 872 276 928 258 908 l 258 239 b 314 183 258 201 278 183 l 414 183 b 469 239 450 183 469 201 l 469 425 l 397 425 b 375 447 382 425 375 433 l 375 586 b 397 608 375 601 382 608 l 631 608 b 653 586 644 608 653 601 l 653 200 b 453 0 653 69 582 0 l 269 0 b 69 200 139 0 69 69 "},"H":{"ha":694,"x_min":0,"x_max":0,"o":"m 436 1089 b 458 1111 436 1103 444 1111 l 601 1111 b 625 1089 618 1111 625 1103 l 625 22 b 601 0 625 8 618 0 l 458 0 b 436 22 444 0 436 8 l 436 464 l 258 464 l 258 22 b 236 0 258 8 250 0 l 93 0 b 69 22 76 0 69 8 l 69 1089 b 93 1111 69 1103 76 1111 l 236 1111 b 258 1089 250 1111 258 1103 l 258 647 l 436 647 "},"I":{"ha":328,"x_min":0,"x_max":0,"o":"m 236 1111 b 258 1089 250 1111 258 1103 l 258 22 b 236 0 258 8 250 0 l 92 0 b 69 22 76 0 69 8 l 69 1089 b 92 1111 69 1103 76 1111 "},"J":{"ha":694,"x_min":0,"x_max":0,"o":"m 436 1089 b 458 1111 436 1103 443 1111 l 603 1111 b 625 1089 617 1111 625 1103 l 625 200 b 425 0 625 69 554 0 l 269 0 b 69 200 139 0 69 69 l 69 344 b 92 367 69 358 76 367 l 231 367 b 253 344 244 367 253 358 l 253 239 b 308 183 253 203 272 183 l 381 183 b 436 239 417 183 436 203 "},"K":{"ha":744,"x_min":0,"x_max":0,"o":"m 517 0 b 485 21 500 0 490 7 l 310 433 l 258 335 l 258 28 b 231 0 258 10 249 0 l 97 0 b 69 28 79 0 69 10 l 69 1083 b 97 1111 69 1101 79 1111 l 231 1111 b 258 1083 249 1111 258 1101 l 258 653 l 472 1090 b 504 1111 479 1104 489 1111 l 650 1111 b 669 1078 671 1111 679 1097 l 433 593 l 685 32 b 664 0 694 14 686 0 "},"L":{"ha":681,"x_min":0,"x_max":0,"o":"m 258 1089 b 236 1111 258 1103 251 1111 l 92 1111 b 69 1089 78 1111 69 1103 l 69 22 b 92 0 69 7 78 0 l 589 0 b 611 22 604 0 611 7 l 611 161 b 589 183 611 175 604 183 l 258 183 "},"M":{"ha":931,"x_min":0,"x_max":0,"o":"m 833 1111 b 861 1083 851 1111 861 1101 l 861 28 b 833 0 861 10 851 0 l 704 0 b 676 28 686 0 676 10 l 676 653 l 667 653 l 529 25 b 499 0 525 8 515 0 l 431 0 b 400 25 414 0 404 8 l 263 653 l 253 653 l 253 28 b 225 0 253 10 243 0 l 97 0 b 69 28 79 0 69 10 l 69 1083 b 97 1111 69 1101 79 1111 l 281 1111 b 311 1086 297 1111 307 1103 l 465 394 l 619 1086 b 650 1111 624 1103 633 1111 "},"N":{"ha":732,"x_min":0,"x_max":0,"o":"m 640 1111 b 663 1089 654 1111 663 1103 l 663 22 b 640 0 663 8 654 0 l 503 0 b 478 18 490 0 482 6 l 265 611 l 258 611 l 258 22 b 236 0 258 8 251 0 l 92 0 b 69 22 78 0 69 8 l 69 1089 b 92 1111 69 1103 78 1111 l 229 1111 b 254 1093 242 1111 250 1106 l 465 503 l 474 503 l 474 1089 b 496 1111 474 1103 481 1111 "},"O":{"ha":694,"x_min":0,"x_max":0,"o":"m 69 911 b 269 1111 69 1042 139 1111 l 425 1111 b 625 911 556 1111 625 1042 l 625 200 b 425 0 625 69 556 0 l 269 0 b 69 200 139 0 69 69 m 390 179 b 446 235 426 179 446 197 l 446 876 b 390 932 446 913 426 932 l 310 932 b 254 876 274 932 254 913 l 254 235 b 310 179 254 197 274 179 "},"P":{"ha":694,"x_min":0,"x_max":0,"o":"m 69 1089 b 92 1111 69 1103 78 1111 l 425 1111 b 625 911 556 1111 625 1042 l 625 572 b 425 372 625 443 556 372 l 258 372 l 258 22 b 236 0 258 8 251 0 l 92 0 b 69 22 78 0 69 8 m 381 556 b 436 611 418 556 436 576 l 436 872 b 381 928 436 908 418 928 l 258 928 l 258 556 "},"Q":{"ha":694,"x_min":0,"x_max":0,"o":"m 625 200 b 535 22 625 113 594 53 l 590 -97 b 571 -122 597 -112 586 -122 l 426 -122 b 403 -103 413 -122 408 -114 l 356 0 l 269 0 b 69 200 139 0 69 69 l 69 911 b 269 1111 69 1042 139 1111 l 425 1111 b 625 911 556 1111 625 1042 m 258 239 b 314 183 258 201 278 183 l 386 183 b 442 239 422 183 442 201 l 442 872 b 386 928 442 908 422 928 l 314 928 b 258 872 278 928 258 908 "},"R":{"ha":710,"x_min":0,"x_max":0,"o":"m 640 572 b 539 389 640 479 606 418 l 635 25 b 615 0 639 8 631 0 l 471 0 b 447 19 457 0 450 7 l 354 372 l 258 372 l 258 22 b 236 0 258 8 250 0 l 92 0 b 69 22 78 0 69 8 l 69 1089 b 92 1111 69 1103 78 1111 l 440 1111 b 640 911 571 1111 640 1042 m 396 556 b 451 611 432 556 451 575 l 451 872 b 396 928 451 908 432 928 l 258 928 l 258 556 "},"S":{"ha":694,"x_min":0,"x_max":0,"o":"m 425 1111 b 625 911 556 1111 625 1042 l 625 764 b 603 742 625 750 618 742 l 458 742 b 436 764 444 742 436 750 l 436 872 b 381 928 436 908 418 928 l 314 928 b 258 872 279 928 258 908 l 258 681 l 589 572 b 625 521 613 563 625 547 l 625 200 b 425 0 625 69 556 0 l 269 0 b 69 200 140 0 69 69 l 69 346 b 92 368 69 361 78 368 l 236 368 b 258 346 251 368 258 361 l 258 239 b 314 183 258 201 279 183 l 381 183 b 436 239 417 183 436 201 l 436 424 l 107 532 b 69 583 82 540 69 557 l 69 911 b 269 1111 69 1042 140 1111 "},"T":{"ha":639,"x_min":0,"x_max":0,"o":"m 575 1111 b 597 1089 590 1111 597 1103 l 597 950 b 575 928 597 936 590 928 l 414 928 l 414 22 b 392 0 414 7 407 0 l 247 0 b 225 22 233 0 225 7 l 225 928 l 64 928 b 42 950 50 928 42 936 l 42 1089 b 64 1111 42 1103 50 1111 "},"U":{"ha":694,"x_min":0,"x_max":0,"o":"m 597 1111 b 625 1083 613 1111 625 1099 l 625 200 b 425 0 625 69 556 0 l 269 0 b 69 200 139 0 69 69 l 69 1083 b 97 1111 69 1099 82 1111 l 231 1111 b 258 1083 246 1111 258 1099 l 258 239 b 314 183 258 201 278 183 l 386 183 b 442 239 422 183 442 201 l 442 1083 b 469 1111 442 1099 454 1111 "},"V":{"ha":754,"x_min":0,"x_max":0,"o":"m 686 1111 b 711 1081 707 1111 715 1100 l 476 25 b 446 0 472 8 463 0 l 307 0 b 276 25 290 0 281 8 l 43 1081 b 68 1111 39 1100 47 1111 l 200 1111 b 231 1086 217 1111 226 1103 l 376 342 l 524 1086 b 554 1111 528 1103 538 1111 "},"W":{"ha":1057,"x_min":0,"x_max":0,"o":"m 961 1111 b 988 1082 979 1111 989 1100 l 868 26 b 839 0 867 8 857 0 l 703 0 b 672 25 686 0 676 8 l 528 653 l 382 24 b 351 0 378 8 368 0 l 213 0 b 183 26 194 0 185 8 l 69 1082 b 96 1111 68 1100 78 1111 l 228 1111 b 257 1085 244 1111 256 1101 l 311 435 l 318 435 l 456 1086 b 486 1111 460 1103 469 1111 l 569 1111 b 600 1086 586 1111 596 1103 l 736 435 l 743 435 l 800 1085 b 829 1111 801 1101 813 1111 "},"X":{"ha":747,"x_min":0,"x_max":0,"o":"m 689 33 b 668 0 697 14 690 0 l 525 0 b 493 19 510 0 499 6 l 360 356 l 226 19 b 194 0 221 6 210 0 l 51 0 b 31 33 29 0 22 14 l 250 567 l 39 1078 b 60 1111 31 1097 38 1111 l 199 1111 b 231 1092 214 1111 225 1106 l 360 763 l 489 1092 b 521 1111 494 1106 506 1111 l 660 1111 b 681 1078 682 1111 689 1097 l 468 567 "},"Y":{"ha":758,"x_min":0,"x_max":0,"o":"m 706 1111 b 728 1079 726 1111 736 1099 l 474 461 l 474 28 b 446 0 474 10 464 0 l 313 0 b 285 28 294 0 285 10 l 285 461 l 31 1079 b 53 1111 22 1099 32 1111 l 192 1111 b 224 1089 208 1111 218 1104 l 379 690 l 535 1089 b 567 1111 540 1104 550 1111 "},"Z":{"ha":704,"x_min":0,"x_max":0,"o":"m 625 1111 b 646 1078 647 1111 653 1097 l 300 183 l 606 183 b 628 161 619 183 628 176 l 628 24 b 606 0 628 10 619 1 l 65 0 b 44 33 43 0 36 14 l 390 926 l 103 926 b 81 949 89 926 81 935 l 81 1088 b 103 1111 81 1103 89 1110 "},"a":{"ha":788,"x_min":0,"x_max":0,"o":"m 590 0 b 568 19 578 0 571 7 l 524 194 l 263 194 l 219 19 b 197 0 217 7 210 0 l 61 0 b 43 24 46 0 39 8 l 274 953 b 297 972 276 967 285 972 l 490 972 b 514 953 503 972 511 967 l 744 24 b 725 0 749 8 742 0 m 393 733 l 306 356 l 481 356 "},"b":{"ha":696,"x_min":0,"x_max":0,"o":"m 626 585 b 539 486 626 533 589 494 l 539 483 b 626 385 589 475 626 436 l 626 200 b 425 0 626 69 556 0 l 92 0 b 69 22 78 0 69 8 l 69 950 b 92 972 69 965 78 972 l 425 972 b 626 772 556 972 626 903 m 450 742 b 394 797 450 778 432 797 l 242 797 l 242 576 l 394 576 b 450 631 431 576 450 596 m 450 338 b 394 393 450 374 432 393 l 242 393 l 242 175 l 394 175 b 450 231 431 175 450 193 "},"c":{"ha":696,"x_min":0,"x_max":0,"o":"m 626 622 b 604 600 626 608 618 600 l 474 600 b 451 622 458 600 451 608 l 451 736 b 396 792 451 772 432 792 l 307 792 b 251 736 269 792 251 772 l 251 232 b 307 176 251 194 271 176 l 396 176 b 451 232 432 176 451 194 l 451 350 b 474 372 451 364 458 372 l 604 372 b 626 350 618 372 626 364 l 626 200 b 426 0 626 69 556 0 l 271 0 b 69 200 140 0 69 69 l 69 772 b 271 972 69 903 140 972 l 426 972 b 626 772 556 972 626 903 "},"d":{"ha":694,"x_min":0,"x_max":0,"o":"m 69 950 b 92 972 69 964 76 972 l 425 972 b 625 771 556 972 625 901 l 625 200 b 425 0 625 69 556 0 l 92 0 b 69 22 76 0 69 7 m 386 183 b 442 239 422 183 442 201 l 442 732 b 386 789 442 769 422 789 l 258 789 l 258 183 "},"e":{"ha":693,"x_min":0,"x_max":0,"o":"m 624 811 b 601 788 624 797 618 788 l 258 788 l 258 574 l 519 574 b 542 550 533 574 542 565 l 542 413 b 519 389 542 397 533 389 l 258 389 l 258 183 l 601 183 b 624 161 618 183 624 176 l 624 22 b 601 0 624 8 618 0 l 90 0 b 69 22 78 0 69 8 l 69 950 b 90 972 69 964 78 972 l 601 972 b 624 950 618 972 624 964 "},"f":{"ha":694,"x_min":0,"x_max":0,"o":"m 625 811 b 603 789 625 797 617 789 l 258 789 l 258 551 l 519 551 b 542 529 533 551 542 543 l 542 390 b 519 368 542 375 533 368 l 258 368 l 258 22 b 236 0 258 8 250 0 l 92 0 b 69 22 76 0 69 8 l 69 950 b 92 972 69 964 76 972 l 603 972 b 625 950 617 972 625 964 "},"g":{"ha":694,"x_min":0,"x_max":0,"o":"m 69 772 b 269 972 69 903 139 972 l 425 972 b 625 772 554 972 625 903 l 625 669 b 603 647 625 656 617 647 l 472 647 b 450 669 457 647 450 656 l 450 738 b 394 793 450 774 431 793 l 306 793 b 250 738 268 793 250 774 l 250 235 b 306 179 250 197 269 179 l 394 179 b 450 235 431 179 450 197 l 450 356 l 378 356 b 356 378 363 356 356 364 l 356 517 b 378 539 356 532 363 539 l 603 539 b 625 517 617 539 625 532 l 625 200 b 425 0 625 69 554 0 l 269 0 b 69 200 139 0 69 69 "},"h":{"ha":694,"x_min":0,"x_max":0,"o":"m 436 950 b 458 972 436 964 444 972 l 601 972 b 625 950 618 972 625 964 l 625 22 b 601 0 625 8 618 0 l 458 0 b 436 22 444 0 436 8 l 436 392 l 258 392 l 258 22 b 236 0 258 8 250 0 l 93 0 b 69 22 76 0 69 8 l 69 950 b 93 972 69 964 76 972 l 236 972 b 258 950 250 972 258 964 l 258 575 l 436 575 "},"i":{"ha":328,"x_min":0,"x_max":0,"o":"m 236 0 b 258 22 250 0 258 8 l 258 950 b 236 972 258 964 250 972 l 92 972 b 69 950 76 972 69 964 l 69 22 b 92 0 69 8 76 0 "},"j":{"ha":694,"x_min":0,"x_max":0,"o":"m 436 950 b 458 972 436 964 443 972 l 603 972 b 625 950 617 972 625 964 l 625 200 b 425 0 625 69 554 0 l 269 0 b 69 200 139 0 69 69 l 69 344 b 92 367 69 358 76 367 l 231 367 b 253 344 244 367 253 358 l 253 239 b 308 183 253 203 272 183 l 381 183 b 436 239 417 183 436 203 "},"k":{"ha":744,"x_min":0,"x_max":0,"o":"m 517 0 b 485 21 500 0 492 7 l 310 364 l 258 265 l 258 28 b 231 0 258 10 249 0 l 97 0 b 69 28 79 0 69 10 l 69 944 b 97 972 69 963 79 972 l 231 972 b 258 944 249 972 258 963 l 258 583 l 472 951 b 504 972 479 964 489 972 l 650 972 b 669 939 671 972 681 957 l 433 524 l 685 32 b 664 0 694 14 686 0 "},"l":{"ha":625,"x_min":0,"x_max":0,"o":"m 258 950 b 236 972 258 964 251 972 l 92 972 b 69 950 78 972 69 964 l 69 22 b 92 0 69 7 78 0 l 533 0 b 556 22 549 0 556 7 l 556 161 b 533 183 556 175 549 183 l 258 183 "},"m":{"ha":931,"x_min":0,"x_max":0,"o":"m 833 972 b 861 944 851 972 861 963 l 861 28 b 833 0 861 10 851 0 l 704 0 b 676 28 686 0 676 10 l 676 574 l 667 574 l 536 24 b 506 0 532 8 522 0 l 424 0 b 393 24 407 0 397 8 l 263 574 l 253 574 l 253 28 b 225 0 253 10 243 0 l 97 0 b 69 28 79 0 69 10 l 69 944 b 97 972 69 963 79 972 l 281 972 b 311 949 297 972 307 964 l 465 329 l 619 949 b 650 972 624 964 633 972 "},"n":{"ha":732,"x_min":0,"x_max":0,"o":"m 640 972 b 663 950 654 972 663 964 l 663 22 b 640 0 663 8 654 0 l 531 0 b 506 18 518 0 511 6 l 244 549 l 244 22 b 222 0 244 8 238 0 l 92 0 b 69 22 78 0 69 8 l 69 950 b 92 972 69 964 78 972 l 201 972 b 226 954 214 972 221 967 l 488 424 l 488 950 b 510 972 488 964 494 972 "},"o":{"ha":694,"x_min":0,"x_max":0,"o":"m 69 772 b 269 972 69 903 139 972 l 425 972 b 625 772 556 972 625 903 l 625 200 b 425 0 625 69 556 0 l 269 0 b 69 200 139 0 69 69 m 394 179 b 450 235 431 179 450 197 l 450 738 b 394 793 450 774 431 793 l 306 793 b 250 738 269 793 250 774 l 250 235 b 306 179 250 197 269 179 "},"p":{"ha":694,"x_min":0,"x_max":0,"o":"m 69 950 b 92 972 69 964 78 972 l 425 972 b 625 772 556 972 625 903 l 625 500 b 425 300 625 371 556 301 l 250 299 l 250 21 b 228 -1 250 7 243 -1 l 92 0 b 69 22 78 0 69 8 m 389 479 b 444 535 426 479 444 500 l 444 738 b 389 793 444 774 426 793 l 250 792 l 250 478 "},"q":{"ha":694,"x_min":0,"x_max":0,"o":"m 625 200 b 535 22 625 113 594 53 l 590 -97 b 571 -122 597 -112 586 -122 l 426 -122 b 403 -103 413 -122 408 -114 l 356 0 l 269 0 b 69 200 139 0 69 69 l 69 772 b 269 972 69 903 139 972 l 425 972 b 625 772 556 972 625 903 m 250 235 b 306 179 250 197 269 179 l 394 179 b 450 235 431 179 450 197 l 450 738 b 394 793 450 774 431 793 l 306 793 b 250 738 269 793 250 774 "},"r":{"ha":694,"x_min":0,"x_max":0,"o":"m 625 493 b 547 324 625 413 599 356 l 619 25 b 600 0 624 8 615 0 l 464 0 b 440 19 450 0 443 7 l 374 293 l 250 293 l 250 22 b 228 0 250 8 242 0 l 92 0 b 69 22 78 0 69 8 l 69 950 b 92 972 69 964 78 972 l 425 972 b 625 772 556 972 625 903 m 389 472 b 444 528 425 472 444 492 l 444 738 b 389 793 444 774 425 793 l 250 793 l 250 472 "},"s":{"ha":694,"x_min":0,"x_max":0,"o":"m 425 972 b 625 772 556 972 625 903 l 625 681 b 603 658 625 667 618 658 l 463 658 b 440 681 449 658 440 667 l 440 739 b 385 794 440 775 422 794 l 308 794 b 253 739 274 794 253 775 l 253 621 l 589 513 b 625 461 613 504 625 488 l 625 200 b 425 0 625 69 556 0 l 269 0 b 69 200 140 0 69 69 l 69 290 b 92 313 69 306 78 313 l 232 313 b 254 290 247 313 254 306 l 254 232 b 310 176 254 194 275 176 l 385 176 b 440 232 421 176 440 194 l 440 372 l 107 481 b 69 532 82 489 69 506 l 69 772 b 269 972 69 903 140 972 "},"t":{"ha":639,"x_min":0,"x_max":0,"o":"m 64 972 b 42 950 50 972 42 964 l 42 811 b 64 789 42 797 50 789 l 225 789 l 225 22 b 247 0 225 7 233 0 l 392 0 b 414 22 407 0 414 7 l 414 789 l 575 789 b 597 811 590 789 597 797 l 597 950 b 575 972 597 964 590 972 "},"u":{"ha":694,"x_min":0,"x_max":0,"o":"m 597 972 b 625 944 613 972 625 960 l 625 200 b 425 0 625 69 556 0 l 269 0 b 69 200 139 0 69 69 l 69 944 b 97 972 69 960 82 972 l 231 972 b 258 944 246 972 258 960 l 258 239 b 314 183 258 201 278 183 l 386 183 b 442 239 422 183 442 201 l 442 944 b 469 972 442 960 454 972 "},"v":{"ha":726,"x_min":0,"x_max":0,"o":"m 658 972 b 683 942 679 972 688 961 l 463 25 b 432 0 458 8 449 0 l 293 0 b 263 25 276 0 267 8 l 43 942 b 68 972 39 961 47 972 l 194 972 b 225 947 211 972 221 964 l 363 319 l 501 947 b 532 972 506 964 515 972 "},"w":{"ha":1065,"x_min":0,"x_max":0,"o":"m 986 972 b 1013 943 1006 972 1015 961 l 879 25 b 849 0 876 8 867 0 l 699 0 b 668 25 682 0 672 8 l 540 594 l 411 25 b 381 0 407 8 397 0 l 228 0 b 197 26 210 0 200 8 l 69 943 b 96 972 67 961 76 972 l 226 972 b 256 946 243 972 253 964 l 324 365 l 331 365 l 467 949 b 497 972 471 964 481 972 l 582 972 b 613 949 599 972 608 964 l 749 365 l 756 365 l 826 946 b 856 972 829 964 838 972 "},"x":{"ha":792,"x_min":0,"x_max":0,"o":"m 732 33 b 711 0 742 14 733 0 l 568 0 b 536 19 553 0 543 6 l 389 321 l 242 19 b 210 0 235 6 225 0 l 67 0 b 46 33 44 0 36 14 l 281 497 l 60 939 b 81 972 50 957 58 972 l 224 972 b 256 953 239 972 249 967 l 389 672 l 522 953 b 554 972 529 967 539 972 l 697 972 b 718 939 719 972 728 957 l 499 497 "},"y":{"ha":731,"x_min":0,"x_max":0,"o":"m 692 972 b 714 940 713 972 722 958 l 460 364 l 460 28 b 432 0 460 10 450 0 l 299 0 b 271 28 281 0 271 10 l 271 364 l 17 940 b 39 972 8 958 18 972 l 178 972 b 210 950 194 972 204 964 l 365 593 l 521 950 b 553 972 526 964 536 972 "},"z":{"ha":706,"x_min":0,"x_max":0,"o":"m 640 972 b 661 939 663 972 671 958 l 307 171 l 611 171 b 633 149 625 171 633 164 l 633 24 b 611 0 633 10 625 1 l 67 0 b 46 33 44 0 36 14 l 400 789 l 114 789 b 92 811 100 789 92 797 l 92 949 b 114 972 92 964 100 971 "},"(":{"ha":425,"x_min":0,"x_max":0,"o":"m 331 1111 b 353 1079 351 1111 360 1099 b 353 -76 208 708 208 294 b 331 -108 360 -96 351 -108 l 214 -108 b 182 -86 197 -108 188 -101 b 182 1089 32 292 32 711 b 214 1111 188 1104 197 1111 "},")":{"ha":425,"x_min":0,"x_max":0,"o":"m 211 1111 b 243 1089 228 1111 238 1104 b 243 -86 393 711 393 292 b 211 -108 238 -101 228 -108 l 94 -108 b 72 -76 74 -108 65 -96 b 72 1079 217 294 217 708 b 94 1111 65 1099 74 1111 "},"—":{"ha":1032,"x_min":0,"x_max":0,"o":"m 69 564 b 97 592 69 582 79 592 l 935 592 b 963 564 953 592 963 582 l 963 436 b 935 408 963 418 953 408 l 97 408 b 69 436 79 408 69 418 "},"–":{"ha":732,"x_min":0,"x_max":0,"o":"m 69 564 b 97 592 69 582 79 592 l 635 592 b 663 564 653 592 663 582 l 663 436 b 635 408 663 418 653 408 l 97 408 b 69 436 79 408 69 418 "},"-":{"ha":414,"x_min":0,"x_max":0,"o":"m 69 564 b 97 592 69 582 79 592 l 317 592 b 344 564 335 592 344 582 l 344 436 b 317 408 344 418 335 408 l 97 408 b 69 436 79 408 69 418 "},"“":{"ha":557,"x_min":0,"x_max":0,"o":"m 251 817 b 224 789 251 799 242 789 l 97 789 b 69 817 79 789 69 799 l 69 953 b 79 988 69 967 72 976 l 154 1101 b 171 1111 158 1108 163 1111 l 233 1111 b 244 1094 244 1111 249 1104 l 189 972 l 224 972 b 251 944 242 972 251 963 m 488 817 b 460 789 488 799 478 789 l 333 789 b 306 817 315 789 306 799 l 306 953 b 315 988 306 967 308 976 l 390 1101 b 407 1111 394 1108 399 1111 l 469 1111 b 481 1094 481 1111 485 1104 l 425 972 l 460 972 b 488 944 478 972 488 963 "},"”":{"ha":568,"x_min":0,"x_max":0,"o":"m 69 1083 b 97 1111 69 1101 79 1111 l 224 1111 b 251 1083 242 1111 251 1101 l 251 947 b 242 913 251 933 249 924 l 167 799 b 150 789 163 792 158 789 l 88 789 b 76 806 76 789 72 796 l 132 928 l 97 928 b 69 956 79 928 69 938 m 317 1083 b 344 1111 317 1101 326 1111 l 471 1111 b 499 1083 489 1111 499 1101 l 499 947 b 489 913 499 933 496 924 l 414 799 b 397 789 410 792 406 789 l 335 789 b 324 806 324 789 319 796 l 379 928 l 344 928 b 317 956 326 928 317 938 "},"‘":{"ha":321,"x_min":0,"x_max":0,"o":"m 251 817 b 224 789 251 799 242 789 l 97 789 b 69 817 79 789 69 799 l 69 953 b 79 988 69 967 72 976 l 154 1101 b 171 1111 158 1108 163 1111 l 233 1111 b 244 1094 244 1111 249 1104 l 189 972 l 224 972 b 251 944 242 972 251 963 "},"’":{"ha":321,"x_min":0,"x_max":0,"o":"m 69 1083 b 97 1111 69 1101 79 1111 l 224 1111 b 251 1083 242 1111 251 1101 l 251 947 b 242 913 251 933 249 924 l 167 799 b 150 789 163 792 158 789 l 88 789 b 76 806 76 789 72 796 l 132 928 l 97 928 b 69 956 79 928 69 938 "},"\\":{"ha":732,"x_min":0,"x_max":0,"o":"m 210 1111 b 242 1089 226 1111 236 1104 l 688 -78 b 665 -110 694 -97 686 -110 l 535 -110 b 503 -87 518 -110 508 -103 l 58 1079 b 81 1111 51 1099 60 1111 "},":":{"ha":321,"x_min":0,"x_max":0,"o":"m 69 619 b 97 647 69 638 79 647 l 224 647 b 251 619 242 647 251 638 l 251 492 b 224 464 251 474 242 464 l 97 464 b 69 492 79 464 69 474 m 69 156 b 97 183 69 174 79 183 l 224 183 b 251 156 242 183 251 174 l 251 28 b 224 0 251 10 242 0 l 97 0 b 69 28 79 0 69 10 "},",":{"ha":321,"x_min":0,"x_max":0,"o":"m 69 156 b 97 183 69 174 79 183 l 224 183 b 251 156 242 183 251 174 l 251 19 b 242 -15 251 6 249 -4 l 167 -129 b 150 -139 163 -136 158 -139 l 88 -139 b 76 -122 76 -139 72 -132 l 132 0 l 97 0 b 69 28 79 0 69 10 "},"…":{"ha":876,"x_min":0,"x_max":0,"o":"m 69 156 b 97 183 69 174 79 183 l 224 183 b 251 156 242 183 251 174 l 251 28 b 224 0 251 10 242 0 l 97 0 b 69 28 79 0 69 10 m 347 156 b 375 183 347 174 357 183 l 501 183 b 529 156 519 183 529 174 l 529 28 b 501 0 529 10 519 0 l 375 0 b 347 28 357 0 347 10 m 625 156 b 653 183 625 174 635 183 l 779 183 b 807 156 797 183 807 174 l 807 28 b 779 0 807 10 797 0 l 653 0 b 625 28 635 0 625 10 "},"!":{"ha":328,"x_min":0,"x_max":0,"o":"m 236 1111 b 258 1089 250 1111 258 1103 l 249 332 b 226 310 249 318 240 310 l 94 310 b 72 332 79 310 72 318 l 63 1089 b 85 1111 63 1103 69 1111 m 69 156 b 97 183 69 174 79 183 l 224 183 b 251 156 242 183 251 174 l 251 28 b 224 0 251 10 242 0 l 97 0 b 69 28 79 0 69 10 "},"#":{"ha":1300,"x_min":0,"x_max":0,"o":"m 1206 815 b 1228 783 1226 815 1236 803 l 1193 688 b 1161 665 1188 672 1178 665 l 971 665 l 893 460 l 1103 460 b 1125 428 1124 460 1133 447 l 1090 332 b 1058 310 1085 317 1075 310 l 836 310 l 726 22 b 694 0 721 7 711 0 l 564 -1 b 542 31 543 -1 535 11 l 649 310 l 460 310 l 350 22 b 318 0 344 7 335 0 l 188 -1 b 165 31 167 -1 158 11 l 272 310 l 94 310 b 72 342 74 310 64 322 l 107 438 b 139 460 113 453 122 460 l 329 460 l 408 665 l 197 665 b 175 697 176 665 167 678 l 210 793 b 242 815 215 808 225 815 l 465 815 l 569 1089 b 601 1111 575 1104 585 1111 l 731 1111 b 753 1079 751 1111 760 1099 l 653 815 l 842 815 l 946 1089 b 978 1111 951 1104 961 1111 l 1107 1111 b 1129 1079 1128 1111 1136 1099 l 1029 815 m 594 665 l 517 460 l 706 460 l 785 665 "},".":{"ha":321,"x_min":0,"x_max":0,"o":"m 69 156 b 97 183 69 174 79 183 l 224 183 b 251 156 242 183 251 174 l 251 28 b 224 0 251 10 242 0 l 97 0 b 69 28 79 0 69 10 "},"?":{"ha":694,"x_min":0,"x_max":0,"o":"m 425 1111 b 625 911 554 1111 625 1042 l 625 638 b 610 603 625 622 621 613 l 433 433 b 419 399 424 424 419 414 l 419 338 b 392 310 419 319 410 310 l 261 310 b 233 338 243 310 233 319 l 233 460 b 247 493 233 474 238 483 l 436 681 l 436 872 b 381 928 436 908 415 928 l 314 928 b 258 872 276 928 258 908 l 258 764 b 236 742 258 750 250 742 l 92 742 b 69 764 76 742 69 750 l 69 911 b 269 1111 69 1042 139 1111 m 233 156 b 261 183 233 174 243 183 l 392 183 b 419 156 410 183 419 174 l 419 28 b 392 0 419 10 410 0 l 261 0 b 233 28 243 0 233 10 "},"\"":{"ha":568,"x_min":0,"x_max":0,"o":"m 69 1083 b 97 1111 69 1101 79 1111 l 224 1111 b 251 1083 242 1111 251 1101 l 251 947 b 242 913 251 933 249 924 l 167 799 b 150 789 163 792 158 789 l 88 789 b 76 806 76 789 72 796 l 132 928 l 97 928 b 69 956 79 928 69 938 m 317 1083 b 344 1111 317 1101 326 1111 l 471 1111 b 499 1083 489 1111 499 1101 l 499 947 b 489 913 499 933 496 924 l 414 799 b 397 789 410 792 406 789 l 335 789 b 324 806 324 789 319 796 l 379 928 l 344 928 b 317 956 326 928 317 938 "},"'":{"ha":321,"x_min":0,"x_max":0,"o":"m 69 1083 b 97 1111 69 1101 79 1111 l 224 1111 b 251 1083 242 1111 251 1101 l 251 947 b 242 913 251 933 249 924 l 167 799 b 150 789 163 792 158 789 l 88 789 b 76 806 76 789 72 796 l 132 928 l 97 928 b 69 956 79 928 69 938 "},";":{"ha":321,"x_min":0,"x_max":0,"o":"m 69 621 b 97 649 69 639 79 649 l 224 649 b 251 621 242 649 251 639 l 251 493 b 224 465 251 475 242 465 l 97 465 b 69 493 79 465 69 475 m 69 156 b 97 183 69 174 79 183 l 224 183 b 251 156 242 183 251 174 l 251 19 b 242 -15 251 6 249 -4 l 167 -129 b 150 -139 163 -136 158 -139 l 88 -139 b 76 -122 76 -139 72 -132 l 132 0 l 97 0 b 69 28 79 0 69 10 "},"/":{"ha":731,"x_min":0,"x_max":0,"o":"m 651 1111 b 674 1079 672 1111 681 1099 l 229 -87 b 197 -110 224 -103 214 -110 l 67 -110 b 44 -78 46 -110 38 -97 l 490 1089 b 522 1111 496 1104 506 1111 "},"_":{"ha":893,"x_min":0,"x_max":0,"o":"m 0 -58 b 28 -31 0 -40 10 -31 l 865 -31 b 893 -58 883 -31 893 -40 l 893 -186 b 865 -214 893 -204 883 -214 l 28 -214 b 0 -186 10 -214 0 -204 "}," ":{"ha":347,"x_min":0,"x_max":0,"o":""},"$":{"ha":694,"x_min":0,"x_max":0,"o":"m 458 742 b 436 764 444 742 436 750 l 436 872 b 381 928 436 908 418 928 l 314 928 b 258 872 279 928 258 908 l 258 681 l 589 572 b 625 521 613 563 625 547 l 625 200 b 436 0 625 74 560 4 l 436 -82 b 414 -104 436 -96 428 -104 l 279 -104 b 257 -82 264 -104 257 -96 l 257 0 b 69 200 136 4 69 74 l 69 346 b 92 368 69 361 78 368 l 236 368 b 258 346 251 368 258 361 l 258 239 b 314 183 258 201 279 183 l 381 183 b 436 239 417 183 436 201 l 436 424 l 107 532 b 69 583 82 540 69 557 l 69 911 b 257 1111 69 1038 136 1107 l 257 1193 b 279 1215 257 1207 264 1215 l 414 1215 b 436 1193 428 1215 436 1207 l 436 1111 b 625 911 560 1107 625 1038 l 625 764 b 603 742 625 750 618 742 "},"€":{"ha":804,"x_min":0,"x_max":0,"o":"m 418 928 b 363 871 382 928 363 908 l 363 764 l 600 764 b 625 735 618 764 628 753 l 608 633 b 579 608 606 617 596 608 l 363 608 l 363 503 l 544 503 b 569 474 563 503 572 492 l 553 372 b 524 347 550 356 540 347 l 363 347 l 363 239 b 418 183 363 201 382 183 l 707 183 b 735 156 725 183 735 174 l 735 42 b 707 13 735 24 725 14 l 379 0 b 179 200 249 -6 179 69 l 179 347 l 96 347 b 69 376 76 347 67 358 l 86 478 b 115 503 89 494 99 503 l 179 503 l 179 608 l 124 608 b 97 638 104 608 94 619 l 114 739 b 144 764 117 756 126 764 l 179 764 l 179 910 b 379 1111 179 1040 249 1117 l 707 1099 b 735 1069 725 1097 735 1088 l 735 956 b 707 928 735 938 725 928 "},"£":{"ha":765,"x_min":0,"x_max":0,"o":"m 535 739 b 513 761 519 739 513 747 l 513 872 b 457 928 513 908 493 928 l 385 928 b 329 872 347 928 329 908 l 329 568 l 599 568 b 626 540 617 568 626 558 l 626 413 b 599 385 626 394 617 385 l 329 385 l 329 183 l 668 183 b 696 156 686 183 696 174 l 696 28 b 668 0 696 10 686 0 l 97 0 b 69 28 79 0 69 10 l 69 132 b 92 164 69 149 76 158 l 118 175 b 139 207 132 181 139 190 l 139 385 l 97 385 b 69 413 79 385 69 394 l 69 540 b 97 568 69 558 79 568 l 139 568 l 139 911 b 340 1111 139 1042 210 1111 l 496 1111 b 696 911 625 1111 696 1042 l 696 761 b 674 739 696 747 688 739 "},"÷":{"ha":967,"x_min":0,"x_max":0,"o":"m 393 931 b 421 958 393 949 403 958 l 547 958 b 575 931 565 958 575 949 l 575 803 b 547 775 575 785 565 775 l 421 775 b 393 803 403 775 393 785 m 897 478 b 869 450 897 460 888 450 l 97 450 b 69 478 79 450 69 460 l 69 608 b 97 636 69 626 79 636 l 869 636 b 897 608 888 636 897 626 m 393 286 b 421 314 393 304 403 314 l 547 314 b 575 286 565 314 575 304 l 575 158 b 547 131 575 140 565 131 l 421 131 b 393 158 403 131 393 140 "},"=":{"ha":968,"x_min":0,"x_max":0,"o":"m 897 618 b 869 590 897 600 888 590 l 97 590 b 69 618 79 590 69 600 l 69 749 b 97 776 69 767 79 776 l 869 776 b 897 749 888 776 897 767 m 899 317 b 871 289 899 299 889 289 l 99 289 b 71 317 81 289 71 299 l 71 447 b 99 475 71 465 81 475 l 871 475 b 899 447 889 475 899 465 "},"−":{"ha":967,"x_min":0,"x_max":0,"o":"m 897 478 b 869 450 897 460 888 450 l 97 450 b 69 478 79 450 69 460 l 69 608 b 97 636 69 626 79 636 l 869 636 b 897 608 888 636 897 626 "},"×":{"ha":836,"x_min":0,"x_max":0,"o":"m 757 789 b 757 750 769 776 769 763 l 550 543 l 757 336 b 757 297 769 324 769 310 l 664 204 b 625 204 651 192 638 192 l 418 411 l 211 204 b 172 204 199 192 185 192 l 79 297 b 79 336 67 310 67 324 l 286 543 l 79 750 b 79 789 67 763 67 776 l 172 882 b 211 882 185 894 199 894 l 418 675 l 625 882 b 664 882 638 894 651 894 "},"%":{"ha":1207,"x_min":0,"x_max":0,"o":"m 332 1025 b 549 803 451 1025 549 925 b 332 586 549 683 451 586 b 111 803 208 586 111 683 b 332 1025 111 925 208 1025 m 1003 1019 b 1025 988 1024 1019 1038 1007 l 386 22 b 354 0 376 7 371 0 l 224 0 b 201 32 203 0 189 13 l 842 997 b 874 1019 851 1013 857 1019 m 332 881 b 254 803 289 881 254 846 b 332 728 254 763 289 728 b 407 803 371 728 407 763 b 332 881 407 846 371 881 m 879 418 b 1096 196 999 418 1096 318 b 879 -21 1096 76 999 -21 b 658 196 756 -21 658 76 b 879 418 658 318 756 418 m 879 274 b 801 196 836 274 801 239 b 879 121 801 156 836 121 b 954 196 918 121 954 156 b 879 274 954 239 918 274 "},"+":{"ha":967,"x_min":0,"x_max":0,"o":"m 897 478 b 869 450 897 460 888 450 l 576 450 l 576 157 b 549 129 576 139 567 129 l 418 129 b 390 157 400 129 390 139 l 390 450 l 97 450 b 69 478 79 450 69 460 l 69 608 b 97 636 69 626 79 636 l 390 636 l 390 929 b 418 957 390 947 400 957 l 549 957 b 576 929 567 957 576 947 l 576 636 l 869 636 b 897 608 888 636 897 626 "},"&":{"ha":782,"x_min":0,"x_max":0,"o":"m 522 1111 b 550 1083 540 1111 550 1101 l 550 956 b 522 928 550 938 540 928 l 310 928 b 254 872 272 928 254 908 l 254 715 b 310 661 254 681 274 661 l 439 661 l 439 717 b 467 744 439 735 449 744 l 599 744 b 626 717 617 744 626 735 l 626 661 l 685 661 b 713 633 703 661 713 651 l 713 506 b 685 478 713 488 703 478 l 626 478 l 626 28 b 599 0 626 10 617 0 l 271 0 b 69 200 140 0 69 69 l 69 469 b 157 568 69 521 107 560 l 157 571 b 69 669 107 579 69 618 l 69 911 b 271 1111 69 1042 140 1111 m 310 478 b 254 422 272 478 254 458 l 254 239 b 310 183 254 201 274 183 l 439 183 l 439 478 "},"@":{"ha":1028,"x_min":0,"x_max":0,"o":"m 758 1056 b 958 856 889 1056 958 986 l 958 229 b 936 207 958 215 950 207 l 797 207 b 775 229 782 207 775 215 l 775 250 l 524 208 b 324 408 393 203 324 278 l 324 597 b 524 799 324 728 393 814 l 775 758 l 775 817 b 719 872 775 854 756 872 l 308 872 b 253 815 272 872 253 853 l 253 183 b 308 128 253 146 272 128 l 597 128 b 625 100 615 128 625 118 l 625 -14 b 597 -43 625 -32 615 -42 l 269 -56 b 69 144 139 -61 69 14 l 69 854 b 269 1056 69 985 139 1056 m 493 447 b 549 392 493 410 513 392 l 775 422 l 775 585 l 549 615 b 493 558 513 615 493 596 "},"°":{"ha":443,"x_min":0,"x_max":0,"o":"m 222 1119 b 401 938 321 1119 401 1038 b 222 758 401 839 321 758 b 42 938 121 758 42 839 b 222 1119 42 1038 121 1119 m 222 1001 b 158 938 188 1001 158 972 b 222 875 158 904 188 875 b 285 938 256 875 285 904 b 222 1001 285 972 256 1001 "}}}
